<svg width="25" height="24" viewBox="0 0 25 24" fill="none" xmlns="http://www.w3.org/2000/svg">
<path d="M4.5 11H20.5C20.7652 11 21.0196 10.8946 21.2071 10.7071C21.3946 10.5196 21.5 10.2652 21.5 10V4C21.5 3.73478 21.3946 3.48043 21.2071 3.29289C21.0196 3.10536 20.7652 3 20.5 3H4.5C4.23478 3 3.98043 3.10536 3.79289 3.29289C3.60536 3.48043 3.5 3.73478 3.5 4V10C3.5 10.2652 3.60536 10.5196 3.79289 10.7071C3.98043 10.8946 4.23478 11 4.5 11ZM4.5 21H20.5C20.7652 21 21.0196 20.8946 21.2071 20.7071C21.3946 20.5196 21.5 20.2652 21.5 20V14C21.5 13.7348 21.3946 13.4804 21.2071 13.2929C21.0196 13.1054 20.7652 13 20.5 13H4.5C4.23478 13 3.98043 13.1054 3.79289 13.2929C3.60536 13.4804 3.5 13.7348 3.5 14V20C3.5 20.2652 3.60536 20.5196 3.79289 20.7071C3.98043 20.8946 4.23478 21 4.5 21Z" fill="#C9C6DD"/>
</svg>
