<svg width="24" height="24" viewBox="0 0 24 24" fill="none" xmlns="http://www.w3.org/2000/svg">
<path d="M10.9999 4L10.4999 3L9.99994 4L8.99994 4.125L9.83394 4.833L9.49994 6L10.4999 5.334L11.4999 6L11.1659 4.833L11.9999 4.125L10.9999 4ZM19.3339 14.666L18.4999 13L17.6659 14.666L15.9999 14.875L17.3889 16.056L16.8339 18L18.4999 16.889L20.1659 18L19.6109 16.056L20.9999 14.875L19.3339 14.666ZM6.66694 6.333L5.99994 5L5.33294 6.333L3.99994 6.5L5.11094 7.444L4.66694 9L5.99994 8.111L7.33294 9L6.88894 7.444L7.99994 6.5L6.66694 6.333ZM3.41394 17C3.41394 17.534 3.62194 18.036 3.99994 18.414L5.58594 20C5.96394 20.378 6.46594 20.586 6.99994 20.586C7.53394 20.586 8.03594 20.378 8.41394 20L19.9999 8.414C20.3779 8.036 20.5859 7.534 20.5859 7C20.5859 6.466 20.3779 5.964 19.9999 5.586L18.4139 4C17.6579 3.244 16.3419 3.244 15.5859 4L3.99994 15.586C3.62194 15.964 3.41394 16.466 3.41394 17ZM16.9999 5.414L18.5859 7L14.9999 10.586L13.4139 9L16.9999 5.414Z" fill="white"/>
</svg>
