<svg width="17" height="16" viewBox="0 0 17 16" fill="none" xmlns="http://www.w3.org/2000/svg">
<path d="M15.1314 6.11934C15.0895 5.99591 15.0124 5.88746 14.9095 5.80737C14.8067 5.72729 14.6827 5.67907 14.5527 5.66867L10.7521 5.36667L9.10739 1.726C9.05501 1.60874 8.96982 1.50915 8.86209 1.43924C8.75436 1.36933 8.6287 1.33209 8.50027 1.33202C8.37185 1.33195 8.24615 1.36905 8.13834 1.43884C8.03054 1.50863 7.94523 1.60813 7.89272 1.72534L6.24806 5.36667L2.44739 5.66867C2.3197 5.67879 2.19762 5.72548 2.09576 5.80316C1.99391 5.88084 1.91659 5.98622 1.87305 6.10669C1.82952 6.22716 1.82162 6.35762 1.85029 6.48247C1.87896 6.60732 1.94299 6.72126 2.03472 6.81067L4.84339 9.54867L3.85006 13.85C3.8199 13.9802 3.82956 14.1165 3.8778 14.2411C3.92605 14.3657 4.01063 14.473 4.12059 14.549C4.23055 14.6249 4.3608 14.6661 4.49445 14.6671C4.62809 14.6681 4.75895 14.629 4.87006 14.5547L8.50006 12.1347L12.1301 14.5547C12.2436 14.6301 12.3775 14.6689 12.5138 14.6659C12.6501 14.6629 12.7822 14.6183 12.8923 14.538C13.0025 14.4577 13.0854 14.3455 13.1299 14.2167C13.1744 14.0879 13.1784 13.9485 13.1414 13.8173L11.9221 9.55067L14.9461 6.82934C15.1441 6.65067 15.2167 6.372 15.1314 6.11934Z" fill="#FFD02C"/>
</svg>
