<svg width="48" height="48" viewBox="0 0 48 48" fill="none" xmlns="http://www.w3.org/2000/svg">
<path d="M1.36998 29.1374V34.4537H46.6808V29.1374H1.36998ZM20.8034 25.0479V48H26.9937V25.0479H20.8034ZM18.926 31.4377C15.019 36.1406 7.30655 40.3834 0 42.4792C1.31924 43.7061 3.14588 46.0575 4.0592 47.5911C11.5687 44.8818 19.2812 39.6677 23.8985 33.6358L18.926 31.4377ZM28.8203 31.5911L23.797 33.9425C28.6173 39.6166 36.4313 44.6262 43.9408 47.1821C44.8034 45.6486 46.6808 43.246 48 42.0703C40.592 40.0767 32.8288 36.0383 28.8203 31.5911ZM19.6871 17.5847H28.0085V21.0607H19.6871V17.5847ZM19.6871 9.8147H28.0085V13.2396H19.6871V9.8147ZM14.055 5.11182V25.7636H33.945V5.11182H14.055ZM21.0571 0C20.8034 2.09585 20.1438 4.85623 19.5349 6.95208L24.9133 7.92332C25.7759 6.13419 26.8414 3.52716 27.907 0.766772L21.0571 0ZM1.0148 6.7476C4.00846 8.99681 7.45877 12.3195 8.93023 14.722L13.3953 10.7859C11.7717 8.38338 8.16913 5.31629 5.17548 3.22045L1.0148 6.7476ZM32.6258 18.9649C36.5328 21.0607 41.7083 24.3323 44.1438 26.5303L47.8985 21.9297C45.26 19.7827 39.9323 16.7668 36.1776 14.8754L32.6258 18.9649ZM41.2009 2.55591C39.2727 5.21406 35.8732 8.6901 33.3869 10.7859L37.9028 13.8019C40.4905 11.7572 43.7886 8.6901 46.4778 5.72524L41.2009 2.55591ZM0.10148 21.6741L3.14588 26.7348C6.39324 24.8434 10.351 22.4409 13.9028 20.2428L12.2283 15.3355C7.76321 17.738 3.19662 20.1917 0.10148 21.6741Z" fill="#F9FAFF"/>
</svg>
