<svg width="176" height="176" viewBox="0 0 176 176" fill="none" xmlns="http://www.w3.org/2000/svg">
<g opacity="0.8" filter="url(#filter0_d_1_4014)">
<path d="M50.2833 96.5623V105.423H125.801V96.5623H50.2833ZM82.6723 89.7465V128H92.9894V89.7465H82.6723ZM79.5433 100.396C73.0317 108.234 60.1776 115.306 48 118.799C50.1987 120.843 53.2431 124.763 54.7653 127.318C67.2812 122.803 80.1353 114.113 87.8309 104.06L79.5433 100.396ZM96.0338 100.652L87.6617 104.571C95.6956 114.028 108.719 122.377 121.235 126.637C122.672 124.081 125.801 120.077 128 118.117C115.653 114.794 102.715 108.064 96.0338 100.652ZM80.8118 77.3078H94.6808V83.1012H80.8118V77.3078ZM80.8118 64.3578H94.6808V70.066H80.8118V64.3578ZM71.4249 56.5197V90.9393H104.575V56.5197H71.4249ZM83.0951 48C82.6723 51.4931 81.5729 56.0937 80.5581 59.5868L89.5222 61.2055C90.9598 58.2236 92.7357 53.8786 94.5116 49.278L83.0951 48ZM49.6913 59.246C54.6808 62.9947 60.4313 68.5325 62.8837 72.5367L70.3256 65.9766C67.6194 61.9723 61.6152 56.8605 56.6258 53.3674L49.6913 59.246ZM102.376 79.6081C108.888 83.1012 117.514 88.5538 121.573 92.2172L127.831 84.5495C123.433 80.9712 114.554 75.9446 108.296 72.7923L102.376 79.6081ZM116.668 52.2599C113.455 56.6901 107.789 62.4835 103.645 65.9766L111.171 71.0032C115.484 67.5953 120.981 62.4835 125.463 57.5421L116.668 52.2599ZM48.1691 84.1235L53.2431 92.558C58.6554 89.4057 65.2516 85.4015 71.1712 81.738L68.3806 73.5591C60.9387 77.5634 53.3277 81.6528 48.1691 84.1235Z" fill="#8571FF"/>
</g>
<defs>
<filter id="filter0_d_1_4014" x="0" y="0" width="176" height="176" filterUnits="userSpaceOnUse" color-interpolation-filters="sRGB">
<feFlood flood-opacity="0" result="BackgroundImageFix"/>
<feColorMatrix in="SourceAlpha" type="matrix" values="0 0 0 0 0 0 0 0 0 0 0 0 0 0 0 0 0 0 127 0" result="hardAlpha"/>
<feOffset/>
<feGaussianBlur stdDeviation="24"/>
<feComposite in2="hardAlpha" operator="out"/>
<feColorMatrix type="matrix" values="0 0 0 0 0.431373 0 0 0 0 0.372549 0 0 0 0 0.823529 0 0 0 0.15 0"/>
<feBlend mode="normal" in2="BackgroundImageFix" result="effect1_dropShadow_1_4014"/>
<feBlend mode="normal" in="SourceGraphic" in2="effect1_dropShadow_1_4014" result="shape"/>
</filter>
</defs>
</svg>
